<svg width="24" height="24" viewBox="0 0 24 24" fill="none" xmlns="http://www.w3.org/2000/svg">
<g id="Atoms / Form / Check / Default">
<rect id="Background" width="24" height="24" rx="2" fill="white"/>
<path id="Border" fill-rule="evenodd" clip-rule="evenodd" d="M21.1765 0H2.82353C1.26414 0 0 1.26414 0 2.82353V21.1765C0 22.7359 1.26414 24 2.82353 24H21.1765C22.7359 24 24 22.7359 24 21.1765V2.82353C24 1.26414 22.7359 0 21.1765 0ZM1.41176 2.82353C1.41176 2.04383 2.04383 1.41176 2.82353 1.41176H21.1765C21.9562 1.41176 22.5882 2.04383 22.5882 2.82353V21.1765C22.5882 21.9562 21.9562 22.5882 21.1765 22.5882H2.82353C2.04383 22.5882 1.41176 21.9562 1.41176 21.1765V2.82353Z" fill="#C2D1D9"/>
</g>
</svg>
