<svg width="20" height="20" viewBox="0 0 20 20" fill="none" xmlns="http://www.w3.org/2000/svg">
<g id="reset" clip-path="url(#clip0_268_11665)">
<rect width="20" height="20" transform="matrix(0 1 -1 0 20 0)" fill="white" style="mix-blend-mode:multiply"/>
<path id="Vector" d="M0.400097 9.9999C0.400097 4.70615 4.70635 0.399902 10.0001 0.399902C15.2938 0.399902 19.6001 4.70615 19.6001 9.9999C19.6001 12.8305 18.3926 15.448 16.2651 17.2749H19.3751V17.7255H15.4001V13.7499H15.8501V17.0368C17.9532 15.2912 19.1501 12.7512 19.1501 9.9999C19.1501 4.95428 15.0457 0.849902 10.0001 0.849902C4.9551 0.849902 0.850097 4.95428 0.850097 9.9999C0.850097 15.0449 4.95447 19.1499 10.0001 19.1499V19.6005C4.70635 19.5999 0.400097 15.2937 0.400097 9.9999Z" fill="#C2D1D9"/>
</g>
<defs>
<clipPath id="clip0_268_11665">
<rect width="20" height="20" fill="white" transform="matrix(0 1 -1 0 20 0)"/>
</clipPath>
</defs>
</svg>
