<svg width="32" height="32" viewBox="0 0 32 32" fill="none" xmlns="http://www.w3.org/2000/svg">
<g id="Bell_light">
<path id="Rectangle 1" d="M8.59712 11.9591C9.01625 8.18701 12.2047 5.33325 16 5.33325V5.33325C19.7953 5.33325 22.9838 8.18701 23.4029 11.9591L23.7386 14.9808C23.8068 15.5948 23.841 15.9019 23.8978 16.2024C24.0354 16.9291 24.2731 17.6333 24.6041 18.2947C24.741 18.5682 24.8999 18.8331 25.2178 19.3629L26.1826 20.9709C26.9884 22.3139 27.3912 22.9853 27.104 23.4926C26.8168 23.9999 26.0337 23.9999 24.4676 23.9999H7.53238C5.96627 23.9999 5.18322 23.9999 4.89599 23.4926C4.60876 22.9853 5.01164 22.3139 5.81739 20.9709L6.78221 19.3629C7.10009 18.8331 7.25904 18.5682 7.39591 18.2947C7.72691 17.6333 7.96459 16.9291 8.10216 16.2024C8.15904 15.9019 8.19316 15.5948 8.26139 14.9808L8.59712 11.9591Z" stroke="#333333" stroke-width="1.5"/>
<path id="Ellipse 45" d="M12.1363 24.5412C12.3642 25.5334 12.8664 26.4103 13.565 27.0356C14.2635 27.661 15.1195 28 16 28C16.8805 28 17.7365 27.661 18.435 27.0356C19.1336 26.4103 19.6358 25.5334 19.8637 24.5412" stroke="#333333" stroke-width="1.5" stroke-linecap="round"/>
</g>
</svg>
