<svg width="28" height="28" viewBox="0 0 28 28" fill="none" xmlns="http://www.w3.org/2000/svg">
<g id="Bookmark_duotone">
<path id="Rectangle 1" d="M4.6665 10.5C4.6665 7.20017 4.6665 5.55025 5.69163 4.52513C6.71676 3.5 8.36667 3.5 11.6665 3.5H16.3332C19.633 3.5 21.2829 3.5 22.308 4.52513C23.3332 5.55025 23.3332 7.20017 23.3332 10.5V18.4655C23.3332 21.596 23.3332 23.1613 22.3482 23.64C21.3632 24.1188 20.1324 23.1517 17.6708 21.2177L16.883 20.5987C15.4989 19.5112 14.8069 18.9674 13.9998 18.9674C13.1928 18.9674 12.5008 19.5112 11.1167 20.5987L10.3289 21.2177C7.86731 23.1517 6.63652 24.1188 5.65151 23.64C4.6665 23.1613 4.6665 21.596 4.6665 18.4655V10.5Z" fill="#0094FF" stroke="#0094FF" stroke-width="1.4"/>
</g>
</svg>
