<svg width="19" height="19" viewBox="0 0 19 19" fill="none" xmlns="http://www.w3.org/2000/svg">
<g id="Pin_alt_light">
<path id="Ellipse 40" d="M15.3275 13.4583C15.9182 13.8193 16.2291 14.2289 16.2291 14.6458C16.2291 15.0627 15.9182 15.4722 15.3275 15.8333C14.7369 16.1943 13.8875 16.4941 12.8645 16.7026C11.8415 16.911 10.6811 17.0208 9.49992 17.0208C8.3187 17.0208 7.1583 16.911 6.13534 16.7026C5.11237 16.4941 4.2629 16.1943 3.67229 15.8333C3.08168 15.4722 2.77075 15.0627 2.77075 14.6458C2.77075 14.2289 3.08168 13.8193 3.67229 13.4583" stroke="#A9C0CC" stroke-linecap="round"/>
<path id="Ellipse 41" d="M15.4375 7.91675C15.4375 11.8003 11.2852 14.4481 9.92541 15.2111C9.65854 15.3608 9.34146 15.3608 9.07459 15.2111C7.71483 14.4481 3.5625 11.8003 3.5625 7.91675C3.5625 4.35425 6.43942 1.97925 9.5 1.97925C12.6667 1.97925 15.4375 4.35425 15.4375 7.91675Z" stroke="#A9C0CC"/>
<path id="Ellipse 5" d="M12.1666 7.91667C12.1666 9.38943 10.9727 10.5833 9.49992 10.5833C8.02716 10.5833 6.83325 9.38943 6.83325 7.91667C6.83325 6.44391 8.02716 5.25 9.49992 5.25C10.9727 5.25 12.1666 6.44391 12.1666 7.91667Z" stroke="#A9C0CC"/>
</g>
</svg>
